<mxfile host="app.diagrams.net" modified="2023-08-18T13:36:25.441Z" agent="Mozilla/5.0 (Windows NT 10.0; Win64; x64; rv:109.0) Gecko/20100101 Firefox/116.0" etag="6uOIREaFuAZ5on9sM-vS" version="21.6.8" type="device">
  <diagram name="Pagina-1" id="ruED8KApXvsvsav0EOmQ">
    <mxGraphModel dx="1793" dy="1034" grid="1" gridSize="10" guides="1" tooltips="1" connect="1" arrows="1" fold="1" page="1" pageScale="1" pageWidth="1654" pageHeight="1169" math="0" shadow="0">
      <root>
        <mxCell id="0" />
        <mxCell id="1" parent="0" />
        <mxCell id="Hz8rqVoHaeQYQRgCHm7I-2" style="edgeStyle=orthogonalEdgeStyle;rounded=0;orthogonalLoop=1;jettySize=auto;html=1;endArrow=none;endFill=0;" parent="1" source="Hz8rqVoHaeQYQRgCHm7I-1" target="Hz8rqVoHaeQYQRgCHm7I-3" edge="1">
          <mxGeometry relative="1" as="geometry">
            <mxPoint x="630" y="370" as="targetPoint" />
          </mxGeometry>
        </mxCell>
        <mxCell id="CA8DIJyEQ-BG8HpjzGWb-2" style="edgeStyle=orthogonalEdgeStyle;rounded=0;orthogonalLoop=1;jettySize=auto;html=1;exitX=0.25;exitY=1;exitDx=0;exitDy=0;" edge="1" parent="1" source="Hz8rqVoHaeQYQRgCHm7I-1" target="CA8DIJyEQ-BG8HpjzGWb-3">
          <mxGeometry relative="1" as="geometry">
            <mxPoint x="360" y="470" as="targetPoint" />
          </mxGeometry>
        </mxCell>
        <mxCell id="CA8DIJyEQ-BG8HpjzGWb-11" style="edgeStyle=orthogonalEdgeStyle;rounded=0;orthogonalLoop=1;jettySize=auto;html=1;" edge="1" parent="1" source="Hz8rqVoHaeQYQRgCHm7I-1" target="CA8DIJyEQ-BG8HpjzGWb-12">
          <mxGeometry relative="1" as="geometry">
            <mxPoint x="482.5" y="280" as="targetPoint" />
          </mxGeometry>
        </mxCell>
        <mxCell id="CA8DIJyEQ-BG8HpjzGWb-32" value="" style="edgeStyle=orthogonalEdgeStyle;rounded=0;orthogonalLoop=1;jettySize=auto;html=1;" edge="1" parent="1" source="Hz8rqVoHaeQYQRgCHm7I-1" target="Hz8rqVoHaeQYQRgCHm7I-3">
          <mxGeometry relative="1" as="geometry" />
        </mxCell>
        <mxCell id="CA8DIJyEQ-BG8HpjzGWb-34" style="edgeStyle=orthogonalEdgeStyle;rounded=0;orthogonalLoop=1;jettySize=auto;html=1;entryX=0;entryY=0.5;entryDx=0;entryDy=0;exitX=0.75;exitY=0;exitDx=0;exitDy=0;" edge="1" parent="1" source="Hz8rqVoHaeQYQRgCHm7I-1" target="CA8DIJyEQ-BG8HpjzGWb-35">
          <mxGeometry relative="1" as="geometry">
            <mxPoint x="720" y="260" as="targetPoint" />
            <Array as="points">
              <mxPoint x="506" y="340" />
              <mxPoint x="530" y="340" />
              <mxPoint x="530" y="190" />
            </Array>
          </mxGeometry>
        </mxCell>
        <mxCell id="CA8DIJyEQ-BG8HpjzGWb-40" style="edgeStyle=orthogonalEdgeStyle;rounded=0;orthogonalLoop=1;jettySize=auto;html=1;exitX=1;exitY=0.25;exitDx=0;exitDy=0;entryX=0.089;entryY=0.4;entryDx=0;entryDy=0;entryPerimeter=0;" edge="1" parent="1" source="Hz8rqVoHaeQYQRgCHm7I-1" target="CA8DIJyEQ-BG8HpjzGWb-42">
          <mxGeometry relative="1" as="geometry">
            <mxPoint x="670" y="250" as="targetPoint" />
            <Array as="points">
              <mxPoint x="530" y="350" />
              <mxPoint x="611" y="350" />
              <mxPoint x="611" y="270" />
              <mxPoint x="689" y="270" />
              <mxPoint x="689" y="268" />
            </Array>
          </mxGeometry>
        </mxCell>
        <mxCell id="Hz8rqVoHaeQYQRgCHm7I-1" value="&lt;font style=&quot;font-size: 12px;&quot;&gt;Film&lt;/font&gt;" style="rounded=0;whiteSpace=wrap;html=1;fillColor=#fff2cc;strokeColor=#d6b656;" parent="1" vertex="1">
          <mxGeometry x="435" y="350" width="95" height="40" as="geometry" />
        </mxCell>
        <mxCell id="Hz8rqVoHaeQYQRgCHm7I-4" style="edgeStyle=orthogonalEdgeStyle;rounded=0;orthogonalLoop=1;jettySize=auto;html=1;endArrow=none;endFill=0;" parent="1" source="Hz8rqVoHaeQYQRgCHm7I-3" target="Hz8rqVoHaeQYQRgCHm7I-5" edge="1">
          <mxGeometry relative="1" as="geometry">
            <mxPoint x="830" y="370" as="targetPoint" />
          </mxGeometry>
        </mxCell>
        <mxCell id="Hz8rqVoHaeQYQRgCHm7I-3" value="Partecipazione" style="rhombus;whiteSpace=wrap;html=1;fillColor=#fff2cc;strokeColor=#d6b656;" parent="1" vertex="1">
          <mxGeometry x="600" y="332.5" width="90" height="75" as="geometry" />
        </mxCell>
        <mxCell id="Hz8rqVoHaeQYQRgCHm7I-69" style="edgeStyle=orthogonalEdgeStyle;rounded=0;orthogonalLoop=1;jettySize=auto;html=1;" parent="1" source="Hz8rqVoHaeQYQRgCHm7I-5" target="Hz8rqVoHaeQYQRgCHm7I-70" edge="1">
          <mxGeometry relative="1" as="geometry">
            <mxPoint x="960" y="560" as="targetPoint" />
          </mxGeometry>
        </mxCell>
        <mxCell id="Hz8rqVoHaeQYQRgCHm7I-5" value="Attori" style="rounded=0;whiteSpace=wrap;html=1;fillColor=#fff2cc;strokeColor=#d6b656;" parent="1" vertex="1">
          <mxGeometry x="770" y="350" width="90" height="40" as="geometry" />
        </mxCell>
        <mxCell id="Hz8rqVoHaeQYQRgCHm7I-8" value="Premio" style="rounded=0;whiteSpace=wrap;html=1;fillColor=#fff2cc;strokeColor=#d6b656;" parent="1" vertex="1">
          <mxGeometry x="437.5" y="590" width="90" height="40" as="geometry" />
        </mxCell>
        <mxCell id="Hz8rqVoHaeQYQRgCHm7I-38" style="edgeStyle=orthogonalEdgeStyle;rounded=0;orthogonalLoop=1;jettySize=auto;html=1;strokeColor=none;" parent="1" edge="1">
          <mxGeometry relative="1" as="geometry">
            <mxPoint x="470" y="940" as="targetPoint" />
            <mxPoint x="630" y="820" as="sourcePoint" />
          </mxGeometry>
        </mxCell>
        <mxCell id="Hz8rqVoHaeQYQRgCHm7I-56" style="edgeStyle=orthogonalEdgeStyle;rounded=0;orthogonalLoop=1;jettySize=auto;html=1;" parent="1" source="Hz8rqVoHaeQYQRgCHm7I-55" target="Hz8rqVoHaeQYQRgCHm7I-8" edge="1">
          <mxGeometry relative="1" as="geometry" />
        </mxCell>
        <mxCell id="CA8DIJyEQ-BG8HpjzGWb-9" style="edgeStyle=orthogonalEdgeStyle;rounded=0;orthogonalLoop=1;jettySize=auto;html=1;entryX=0.5;entryY=1;entryDx=0;entryDy=0;" edge="1" parent="1" source="Hz8rqVoHaeQYQRgCHm7I-55" target="Hz8rqVoHaeQYQRgCHm7I-1">
          <mxGeometry relative="1" as="geometry">
            <mxPoint x="480" y="380" as="targetPoint" />
          </mxGeometry>
        </mxCell>
        <mxCell id="Hz8rqVoHaeQYQRgCHm7I-55" value="Vinto" style="rhombus;whiteSpace=wrap;html=1;fillColor=#fff2cc;strokeColor=#d6b656;" parent="1" vertex="1">
          <mxGeometry x="441.25" y="460" width="82.5" height="60" as="geometry" />
        </mxCell>
        <mxCell id="Hz8rqVoHaeQYQRgCHm7I-73" style="edgeStyle=orthogonalEdgeStyle;rounded=0;orthogonalLoop=1;jettySize=auto;html=1;endArrow=none;endFill=0;" parent="1" source="Hz8rqVoHaeQYQRgCHm7I-70" target="Hz8rqVoHaeQYQRgCHm7I-8" edge="1">
          <mxGeometry relative="1" as="geometry" />
        </mxCell>
        <mxCell id="Hz8rqVoHaeQYQRgCHm7I-70" value="Vinto" style="rhombus;whiteSpace=wrap;html=1;fillColor=#fff2cc;strokeColor=#d6b656;" parent="1" vertex="1">
          <mxGeometry x="775" y="580" width="80" height="60" as="geometry" />
        </mxCell>
        <mxCell id="CA8DIJyEQ-BG8HpjzGWb-4" style="edgeStyle=orthogonalEdgeStyle;rounded=0;orthogonalLoop=1;jettySize=auto;html=1;" edge="1" parent="1" source="CA8DIJyEQ-BG8HpjzGWb-3" target="CA8DIJyEQ-BG8HpjzGWb-5">
          <mxGeometry relative="1" as="geometry">
            <mxPoint x="360" y="570" as="targetPoint" />
          </mxGeometry>
        </mxCell>
        <mxCell id="CA8DIJyEQ-BG8HpjzGWb-3" value="Direzione" style="rhombus;whiteSpace=wrap;html=1;fillColor=#fff2cc;strokeColor=#d6b656;" vertex="1" parent="1">
          <mxGeometry x="320" y="460" width="80" height="60" as="geometry" />
        </mxCell>
        <mxCell id="CA8DIJyEQ-BG8HpjzGWb-6" style="edgeStyle=orthogonalEdgeStyle;rounded=0;orthogonalLoop=1;jettySize=auto;html=1;endArrow=none;endFill=0;" edge="1" parent="1" source="CA8DIJyEQ-BG8HpjzGWb-5" target="CA8DIJyEQ-BG8HpjzGWb-7">
          <mxGeometry relative="1" as="geometry">
            <mxPoint x="360" y="610" as="targetPoint" />
          </mxGeometry>
        </mxCell>
        <mxCell id="CA8DIJyEQ-BG8HpjzGWb-5" value="Regista" style="rounded=0;whiteSpace=wrap;html=1;fillColor=#fff2cc;strokeColor=#d6b656;" vertex="1" parent="1">
          <mxGeometry x="210" y="590" width="90" height="40" as="geometry" />
        </mxCell>
        <mxCell id="CA8DIJyEQ-BG8HpjzGWb-8" style="edgeStyle=orthogonalEdgeStyle;rounded=0;orthogonalLoop=1;jettySize=auto;html=1;endArrow=none;endFill=0;" edge="1" parent="1" source="CA8DIJyEQ-BG8HpjzGWb-7" target="Hz8rqVoHaeQYQRgCHm7I-8">
          <mxGeometry relative="1" as="geometry" />
        </mxCell>
        <mxCell id="CA8DIJyEQ-BG8HpjzGWb-7" value="Premiazione" style="rhombus;whiteSpace=wrap;html=1;fillColor=#fff2cc;strokeColor=#d6b656;" vertex="1" parent="1">
          <mxGeometry x="320" y="575" width="90" height="70" as="geometry" />
        </mxCell>
        <mxCell id="CA8DIJyEQ-BG8HpjzGWb-13" style="edgeStyle=orthogonalEdgeStyle;rounded=0;orthogonalLoop=1;jettySize=auto;html=1;" edge="1" parent="1" source="CA8DIJyEQ-BG8HpjzGWb-12" target="CA8DIJyEQ-BG8HpjzGWb-14">
          <mxGeometry relative="1" as="geometry">
            <mxPoint x="483.75" y="170" as="targetPoint" />
          </mxGeometry>
        </mxCell>
        <mxCell id="CA8DIJyEQ-BG8HpjzGWb-12" value="Codifica" style="rhombus;whiteSpace=wrap;html=1;fillColor=#d5e8d4;strokeColor=#82b366;" vertex="1" parent="1">
          <mxGeometry x="440" y="220" width="87.5" height="60" as="geometry" />
        </mxCell>
        <mxCell id="CA8DIJyEQ-BG8HpjzGWb-19" style="edgeStyle=orthogonalEdgeStyle;rounded=0;orthogonalLoop=1;jettySize=auto;html=1;" edge="1" parent="1" source="CA8DIJyEQ-BG8HpjzGWb-14">
          <mxGeometry relative="1" as="geometry">
            <mxPoint x="400" y="50" as="targetPoint" />
            <Array as="points">
              <mxPoint x="484" y="81" />
              <mxPoint x="485" y="81" />
              <mxPoint x="485" y="50" />
            </Array>
          </mxGeometry>
        </mxCell>
        <mxCell id="CA8DIJyEQ-BG8HpjzGWb-24" style="edgeStyle=orthogonalEdgeStyle;rounded=0;orthogonalLoop=1;jettySize=auto;html=1;exitX=0.75;exitY=0;exitDx=0;exitDy=0;entryX=0;entryY=0.5;entryDx=0;entryDy=0;" edge="1" parent="1" source="CA8DIJyEQ-BG8HpjzGWb-14" target="CA8DIJyEQ-BG8HpjzGWb-25">
          <mxGeometry relative="1" as="geometry">
            <mxPoint x="600" y="130" as="targetPoint" />
          </mxGeometry>
        </mxCell>
        <mxCell id="CA8DIJyEQ-BG8HpjzGWb-14" value="Film Codificato" style="rounded=0;whiteSpace=wrap;html=1;fillColor=#d5e8d4;strokeColor=#82b366;" vertex="1" parent="1">
          <mxGeometry x="425.63" y="110" width="116.25" height="40" as="geometry" />
        </mxCell>
        <mxCell id="CA8DIJyEQ-BG8HpjzGWb-16" style="edgeStyle=orthogonalEdgeStyle;rounded=0;orthogonalLoop=1;jettySize=auto;html=1;" edge="1" parent="1" source="CA8DIJyEQ-BG8HpjzGWb-15" target="CA8DIJyEQ-BG8HpjzGWb-17">
          <mxGeometry relative="1" as="geometry">
            <mxPoint x="310" y="132.5" as="targetPoint" />
          </mxGeometry>
        </mxCell>
        <mxCell id="CA8DIJyEQ-BG8HpjzGWb-15" value="Formato Audio" style="rounded=0;whiteSpace=wrap;html=1;fillColor=#d5e8d4;strokeColor=#82b366;" vertex="1" parent="1">
          <mxGeometry x="60" y="112.5" width="110" height="35" as="geometry" />
        </mxCell>
        <mxCell id="CA8DIJyEQ-BG8HpjzGWb-18" style="edgeStyle=orthogonalEdgeStyle;rounded=0;orthogonalLoop=1;jettySize=auto;html=1;" edge="1" parent="1" source="CA8DIJyEQ-BG8HpjzGWb-17" target="CA8DIJyEQ-BG8HpjzGWb-14">
          <mxGeometry relative="1" as="geometry" />
        </mxCell>
        <mxCell id="CA8DIJyEQ-BG8HpjzGWb-17" value="Codifica Audio" style="rhombus;whiteSpace=wrap;html=1;fillColor=#d5e8d4;strokeColor=#82b366;" vertex="1" parent="1">
          <mxGeometry x="260" y="96.25" width="90" height="67.5" as="geometry" />
        </mxCell>
        <mxCell id="CA8DIJyEQ-BG8HpjzGWb-21" style="edgeStyle=orthogonalEdgeStyle;rounded=0;orthogonalLoop=1;jettySize=auto;html=1;" edge="1" parent="1" source="CA8DIJyEQ-BG8HpjzGWb-20" target="CA8DIJyEQ-BG8HpjzGWb-22">
          <mxGeometry relative="1" as="geometry">
            <mxPoint x="230" y="50" as="targetPoint" />
          </mxGeometry>
        </mxCell>
        <mxCell id="CA8DIJyEQ-BG8HpjzGWb-20" value="Codifica Video" style="rhombus;whiteSpace=wrap;html=1;fillColor=#d5e8d4;strokeColor=#82b366;" vertex="1" parent="1">
          <mxGeometry x="320" y="20" width="80" height="60" as="geometry" />
        </mxCell>
        <mxCell id="CA8DIJyEQ-BG8HpjzGWb-22" value="Formato Video" style="rounded=0;whiteSpace=wrap;html=1;fillColor=#d5e8d4;strokeColor=#82b366;" vertex="1" parent="1">
          <mxGeometry x="130" y="35" width="100" height="30" as="geometry" />
        </mxCell>
        <mxCell id="CA8DIJyEQ-BG8HpjzGWb-26" style="edgeStyle=orthogonalEdgeStyle;rounded=0;orthogonalLoop=1;jettySize=auto;html=1;" edge="1" parent="1" source="CA8DIJyEQ-BG8HpjzGWb-25" target="CA8DIJyEQ-BG8HpjzGWb-27">
          <mxGeometry relative="1" as="geometry">
            <mxPoint x="710" y="62.5" as="targetPoint" />
          </mxGeometry>
        </mxCell>
        <mxCell id="CA8DIJyEQ-BG8HpjzGWb-25" value="Utilizzo" style="rhombus;whiteSpace=wrap;html=1;fillColor=#d5e8d4;strokeColor=#82b366;" vertex="1" parent="1">
          <mxGeometry x="590" y="20" width="90" height="65" as="geometry" />
        </mxCell>
        <mxCell id="CA8DIJyEQ-BG8HpjzGWb-27" value="Codec" style="rounded=0;whiteSpace=wrap;html=1;fillColor=#d5e8d4;strokeColor=#82b366;" vertex="1" parent="1">
          <mxGeometry x="882.5" y="35" width="100" height="37.5" as="geometry" />
        </mxCell>
        <mxCell id="CA8DIJyEQ-BG8HpjzGWb-33" value="Partecipazione" style="rhombus;whiteSpace=wrap;html=1;fillColor=#fff2cc;strokeColor=#d6b656;" vertex="1" parent="1">
          <mxGeometry x="600" y="332.5" width="90" height="75" as="geometry" />
        </mxCell>
        <mxCell id="CA8DIJyEQ-BG8HpjzGWb-36" style="edgeStyle=orthogonalEdgeStyle;rounded=0;orthogonalLoop=1;jettySize=auto;html=1;" edge="1" parent="1" source="CA8DIJyEQ-BG8HpjzGWb-35" target="CA8DIJyEQ-BG8HpjzGWb-37">
          <mxGeometry relative="1" as="geometry">
            <mxPoint x="960" y="250" as="targetPoint" />
          </mxGeometry>
        </mxCell>
        <mxCell id="CA8DIJyEQ-BG8HpjzGWb-35" value="Cronologia" style="rhombus;whiteSpace=wrap;html=1;fillColor=#f8cecc;strokeColor=#b85450;" vertex="1" parent="1">
          <mxGeometry x="680" y="160" width="90" height="60" as="geometry" />
        </mxCell>
        <mxCell id="CA8DIJyEQ-BG8HpjzGWb-48" style="edgeStyle=orthogonalEdgeStyle;rounded=0;orthogonalLoop=1;jettySize=auto;html=1;" edge="1" parent="1" source="CA8DIJyEQ-BG8HpjzGWb-37" target="CA8DIJyEQ-BG8HpjzGWb-49">
          <mxGeometry relative="1" as="geometry">
            <mxPoint x="1160" y="265" as="targetPoint" />
          </mxGeometry>
        </mxCell>
        <mxCell id="CA8DIJyEQ-BG8HpjzGWb-60" value="" style="edgeStyle=orthogonalEdgeStyle;rounded=0;orthogonalLoop=1;jettySize=auto;html=1;" edge="1" parent="1" source="CA8DIJyEQ-BG8HpjzGWb-37" target="CA8DIJyEQ-BG8HpjzGWb-59">
          <mxGeometry relative="1" as="geometry" />
        </mxCell>
        <mxCell id="CA8DIJyEQ-BG8HpjzGWb-37" value="Utente" style="rounded=0;whiteSpace=wrap;html=1;fillColor=#f8cecc;strokeColor=#b85450;" vertex="1" parent="1">
          <mxGeometry x="970" y="245" width="110" height="40" as="geometry" />
        </mxCell>
        <mxCell id="CA8DIJyEQ-BG8HpjzGWb-43" style="edgeStyle=orthogonalEdgeStyle;rounded=0;orthogonalLoop=1;jettySize=auto;html=1;" edge="1" parent="1" source="CA8DIJyEQ-BG8HpjzGWb-42" target="CA8DIJyEQ-BG8HpjzGWb-37">
          <mxGeometry relative="1" as="geometry" />
        </mxCell>
        <mxCell id="CA8DIJyEQ-BG8HpjzGWb-42" value="Rating Personalizzato" style="rhombus;whiteSpace=wrap;html=1;fillColor=#f8cecc;strokeColor=#b85450;" vertex="1" parent="1">
          <mxGeometry x="700" y="230" width="100" height="70" as="geometry" />
        </mxCell>
        <mxCell id="CA8DIJyEQ-BG8HpjzGWb-45" style="edgeStyle=orthogonalEdgeStyle;rounded=0;orthogonalLoop=1;jettySize=auto;html=1;" edge="1" parent="1" source="CA8DIJyEQ-BG8HpjzGWb-44" target="CA8DIJyEQ-BG8HpjzGWb-46">
          <mxGeometry relative="1" as="geometry">
            <mxPoint x="1280" y="180" as="targetPoint" />
          </mxGeometry>
        </mxCell>
        <mxCell id="CA8DIJyEQ-BG8HpjzGWb-52" style="edgeStyle=orthogonalEdgeStyle;rounded=0;orthogonalLoop=1;jettySize=auto;html=1;" edge="1" parent="1" source="CA8DIJyEQ-BG8HpjzGWb-44" target="CA8DIJyEQ-BG8HpjzGWb-53">
          <mxGeometry relative="1" as="geometry">
            <mxPoint x="1490" y="290" as="targetPoint" />
          </mxGeometry>
        </mxCell>
        <mxCell id="CA8DIJyEQ-BG8HpjzGWb-44" value="Abbonamento" style="rounded=0;whiteSpace=wrap;html=1;fillColor=#f8cecc;strokeColor=#b85450;" vertex="1" parent="1">
          <mxGeometry x="1440" y="160" width="100" height="40" as="geometry" />
        </mxCell>
        <mxCell id="CA8DIJyEQ-BG8HpjzGWb-47" style="edgeStyle=orthogonalEdgeStyle;rounded=0;orthogonalLoop=1;jettySize=auto;html=1;entryX=0.75;entryY=0;entryDx=0;entryDy=0;" edge="1" parent="1" source="CA8DIJyEQ-BG8HpjzGWb-46" target="CA8DIJyEQ-BG8HpjzGWb-37">
          <mxGeometry relative="1" as="geometry" />
        </mxCell>
        <mxCell id="CA8DIJyEQ-BG8HpjzGWb-46" value="Acquisto" style="rhombus;whiteSpace=wrap;html=1;fillColor=#f8cecc;strokeColor=#b85450;" vertex="1" parent="1">
          <mxGeometry x="1240" y="140" width="80" height="80" as="geometry" />
        </mxCell>
        <mxCell id="CA8DIJyEQ-BG8HpjzGWb-50" style="edgeStyle=orthogonalEdgeStyle;rounded=0;orthogonalLoop=1;jettySize=auto;html=1;" edge="1" parent="1" source="CA8DIJyEQ-BG8HpjzGWb-49" target="CA8DIJyEQ-BG8HpjzGWb-51">
          <mxGeometry relative="1" as="geometry">
            <mxPoint x="1280" y="265" as="targetPoint" />
          </mxGeometry>
        </mxCell>
        <mxCell id="CA8DIJyEQ-BG8HpjzGWb-49" value="Possesso" style="rhombus;whiteSpace=wrap;html=1;fillColor=#f8cecc;strokeColor=#b85450;" vertex="1" parent="1">
          <mxGeometry x="1140" y="260" width="90" height="62.5" as="geometry" />
        </mxCell>
        <mxCell id="CA8DIJyEQ-BG8HpjzGWb-56" style="edgeStyle=orthogonalEdgeStyle;rounded=0;orthogonalLoop=1;jettySize=auto;html=1;" edge="1" parent="1" source="CA8DIJyEQ-BG8HpjzGWb-51" target="CA8DIJyEQ-BG8HpjzGWb-57">
          <mxGeometry relative="1" as="geometry">
            <mxPoint x="1330" y="380" as="targetPoint" />
          </mxGeometry>
        </mxCell>
        <mxCell id="CA8DIJyEQ-BG8HpjzGWb-51" value="Dati Fatturazione" style="rounded=0;whiteSpace=wrap;html=1;fillColor=#f8cecc;strokeColor=#b85450;" vertex="1" parent="1">
          <mxGeometry x="1280" y="273.13" width="100" height="36.25" as="geometry" />
        </mxCell>
        <mxCell id="CA8DIJyEQ-BG8HpjzGWb-54" style="edgeStyle=orthogonalEdgeStyle;rounded=0;orthogonalLoop=1;jettySize=auto;html=1;" edge="1" parent="1" source="CA8DIJyEQ-BG8HpjzGWb-53" target="CA8DIJyEQ-BG8HpjzGWb-55">
          <mxGeometry relative="1" as="geometry">
            <mxPoint x="1490" y="370" as="targetPoint" />
          </mxGeometry>
        </mxCell>
        <mxCell id="CA8DIJyEQ-BG8HpjzGWb-53" value="Attivazione" style="rhombus;whiteSpace=wrap;html=1;fillColor=#f8cecc;strokeColor=#b85450;" vertex="1" parent="1">
          <mxGeometry x="1450" y="250" width="80" height="60" as="geometry" />
        </mxCell>
        <mxCell id="CA8DIJyEQ-BG8HpjzGWb-55" value="Fattura" style="rounded=0;whiteSpace=wrap;html=1;fillColor=#f8cecc;strokeColor=#b85450;" vertex="1" parent="1">
          <mxGeometry x="1435" y="380" width="110" height="40" as="geometry" />
        </mxCell>
        <mxCell id="CA8DIJyEQ-BG8HpjzGWb-58" style="edgeStyle=orthogonalEdgeStyle;rounded=0;orthogonalLoop=1;jettySize=auto;html=1;" edge="1" parent="1" source="CA8DIJyEQ-BG8HpjzGWb-57" target="CA8DIJyEQ-BG8HpjzGWb-55">
          <mxGeometry relative="1" as="geometry" />
        </mxCell>
        <mxCell id="CA8DIJyEQ-BG8HpjzGWb-57" value="Pagamento" style="rhombus;whiteSpace=wrap;html=1;fillColor=#f8cecc;strokeColor=#b85450;" vertex="1" parent="1">
          <mxGeometry x="1285" y="370" width="90" height="60" as="geometry" />
        </mxCell>
        <mxCell id="CA8DIJyEQ-BG8HpjzGWb-61" style="edgeStyle=orthogonalEdgeStyle;rounded=0;orthogonalLoop=1;jettySize=auto;html=1;" edge="1" parent="1" source="CA8DIJyEQ-BG8HpjzGWb-59">
          <mxGeometry relative="1" as="geometry">
            <mxPoint x="1025" y="500" as="targetPoint" />
          </mxGeometry>
        </mxCell>
        <mxCell id="CA8DIJyEQ-BG8HpjzGWb-59" value="Inizializzazione" style="rhombus;whiteSpace=wrap;html=1;fillColor=#f8cecc;strokeColor=#b85450;rounded=0;" vertex="1" parent="1">
          <mxGeometry x="977.5" y="365" width="95" height="70" as="geometry" />
        </mxCell>
        <mxCell id="CA8DIJyEQ-BG8HpjzGWb-63" style="edgeStyle=orthogonalEdgeStyle;rounded=0;orthogonalLoop=1;jettySize=auto;html=1;" edge="1" parent="1" source="CA8DIJyEQ-BG8HpjzGWb-62" target="CA8DIJyEQ-BG8HpjzGWb-64">
          <mxGeometry relative="1" as="geometry">
            <mxPoint x="1120" y="520" as="targetPoint" />
          </mxGeometry>
        </mxCell>
        <mxCell id="CA8DIJyEQ-BG8HpjzGWb-67" style="edgeStyle=orthogonalEdgeStyle;rounded=0;orthogonalLoop=1;jettySize=auto;html=1;" edge="1" parent="1" source="CA8DIJyEQ-BG8HpjzGWb-62" target="CA8DIJyEQ-BG8HpjzGWb-68">
          <mxGeometry relative="1" as="geometry">
            <mxPoint x="1025" y="610" as="targetPoint" />
          </mxGeometry>
        </mxCell>
        <mxCell id="CA8DIJyEQ-BG8HpjzGWb-62" value="Connessione" style="rounded=0;whiteSpace=wrap;html=1;fillColor=#f8cecc;strokeColor=#b85450;" vertex="1" parent="1">
          <mxGeometry x="970" y="500" width="110" height="40" as="geometry" />
        </mxCell>
        <mxCell id="CA8DIJyEQ-BG8HpjzGWb-65" style="edgeStyle=orthogonalEdgeStyle;rounded=0;orthogonalLoop=1;jettySize=auto;html=1;" edge="1" parent="1" source="CA8DIJyEQ-BG8HpjzGWb-64" target="CA8DIJyEQ-BG8HpjzGWb-66">
          <mxGeometry relative="1" as="geometry">
            <mxPoint x="1260" y="520" as="targetPoint" />
          </mxGeometry>
        </mxCell>
        <mxCell id="CA8DIJyEQ-BG8HpjzGWb-64" value="Utilizzo" style="rhombus;whiteSpace=wrap;html=1;fillColor=#f8cecc;strokeColor=#b85450;" vertex="1" parent="1">
          <mxGeometry x="1120" y="490" width="90" height="60" as="geometry" />
        </mxCell>
        <mxCell id="CA8DIJyEQ-BG8HpjzGWb-66" value="Dispositivo" style="rounded=0;whiteSpace=wrap;html=1;fillColor=#f8cecc;strokeColor=#b85450;" vertex="1" parent="1">
          <mxGeometry x="1250" y="500" width="110" height="40" as="geometry" />
        </mxCell>
        <mxCell id="CA8DIJyEQ-BG8HpjzGWb-69" style="edgeStyle=orthogonalEdgeStyle;rounded=0;orthogonalLoop=1;jettySize=auto;html=1;" edge="1" parent="1" source="CA8DIJyEQ-BG8HpjzGWb-68" target="CA8DIJyEQ-BG8HpjzGWb-70">
          <mxGeometry relative="1" as="geometry">
            <mxPoint x="1025" y="710" as="targetPoint" />
          </mxGeometry>
        </mxCell>
        <mxCell id="CA8DIJyEQ-BG8HpjzGWb-68" value="Richiesta" style="rhombus;whiteSpace=wrap;html=1;fillColor=#dae8fc;strokeColor=#6c8ebf;" vertex="1" parent="1">
          <mxGeometry x="982.5" y="600" width="85" height="60" as="geometry" />
        </mxCell>
        <mxCell id="CA8DIJyEQ-BG8HpjzGWb-72" style="edgeStyle=orthogonalEdgeStyle;rounded=0;orthogonalLoop=1;jettySize=auto;html=1;" edge="1" parent="1" source="CA8DIJyEQ-BG8HpjzGWb-70" target="CA8DIJyEQ-BG8HpjzGWb-73">
          <mxGeometry relative="1" as="geometry">
            <mxPoint x="580" y="720" as="targetPoint" />
            <Array as="points">
              <mxPoint x="710" y="730" />
              <mxPoint x="710" y="730" />
            </Array>
          </mxGeometry>
        </mxCell>
        <mxCell id="CA8DIJyEQ-BG8HpjzGWb-75" style="edgeStyle=orthogonalEdgeStyle;rounded=0;orthogonalLoop=1;jettySize=auto;html=1;" edge="1" parent="1" source="CA8DIJyEQ-BG8HpjzGWb-70" target="CA8DIJyEQ-BG8HpjzGWb-76">
          <mxGeometry relative="1" as="geometry">
            <mxPoint x="1140" y="730" as="targetPoint" />
          </mxGeometry>
        </mxCell>
        <mxCell id="CA8DIJyEQ-BG8HpjzGWb-70" value="Visualizzazione" style="rounded=0;whiteSpace=wrap;html=1;fillColor=#dae8fc;strokeColor=#6c8ebf;" vertex="1" parent="1">
          <mxGeometry x="972.5" y="710" width="105" height="40" as="geometry" />
        </mxCell>
        <mxCell id="CA8DIJyEQ-BG8HpjzGWb-74" style="edgeStyle=orthogonalEdgeStyle;rounded=0;orthogonalLoop=1;jettySize=auto;html=1;entryX=0.25;entryY=1;entryDx=0;entryDy=0;exitX=0.5;exitY=0;exitDx=0;exitDy=0;" edge="1" parent="1" source="CA8DIJyEQ-BG8HpjzGWb-73" target="CA8DIJyEQ-BG8HpjzGWb-14">
          <mxGeometry relative="1" as="geometry">
            <mxPoint x="420" y="230" as="targetPoint" />
            <Array as="points">
              <mxPoint x="149" y="230" />
              <mxPoint x="455" y="230" />
            </Array>
          </mxGeometry>
        </mxCell>
        <mxCell id="CA8DIJyEQ-BG8HpjzGWb-73" value="Di" style="rhombus;whiteSpace=wrap;html=1;fillColor=#dae8fc;strokeColor=#6c8ebf;" vertex="1" parent="1">
          <mxGeometry x="100" y="700" width="98.12" height="60" as="geometry" />
        </mxCell>
        <mxCell id="CA8DIJyEQ-BG8HpjzGWb-77" style="edgeStyle=orthogonalEdgeStyle;rounded=0;orthogonalLoop=1;jettySize=auto;html=1;" edge="1" parent="1" source="CA8DIJyEQ-BG8HpjzGWb-76" target="CA8DIJyEQ-BG8HpjzGWb-78">
          <mxGeometry relative="1" as="geometry">
            <mxPoint x="1025" y="940" as="targetPoint" />
          </mxGeometry>
        </mxCell>
        <mxCell id="CA8DIJyEQ-BG8HpjzGWb-76" value="Utilizzo di" style="rhombus;whiteSpace=wrap;html=1;fillColor=#dae8fc;strokeColor=#6c8ebf;" vertex="1" parent="1">
          <mxGeometry x="977.5" y="810" width="95" height="60" as="geometry" />
        </mxCell>
        <mxCell id="CA8DIJyEQ-BG8HpjzGWb-79" style="edgeStyle=orthogonalEdgeStyle;rounded=0;orthogonalLoop=1;jettySize=auto;html=1;" edge="1" parent="1" source="CA8DIJyEQ-BG8HpjzGWb-78" target="CA8DIJyEQ-BG8HpjzGWb-80">
          <mxGeometry relative="1" as="geometry">
            <mxPoint x="880" y="940" as="targetPoint" />
          </mxGeometry>
        </mxCell>
        <mxCell id="CA8DIJyEQ-BG8HpjzGWb-83" style="edgeStyle=orthogonalEdgeStyle;rounded=0;orthogonalLoop=1;jettySize=auto;html=1;exitX=0.5;exitY=1;exitDx=0;exitDy=0;" edge="1" parent="1" source="CA8DIJyEQ-BG8HpjzGWb-78" target="CA8DIJyEQ-BG8HpjzGWb-84">
          <mxGeometry relative="1" as="geometry">
            <mxPoint x="50" y="490" as="targetPoint" />
          </mxGeometry>
        </mxCell>
        <mxCell id="CA8DIJyEQ-BG8HpjzGWb-78" value="Server" style="rounded=0;whiteSpace=wrap;html=1;fillColor=#dae8fc;strokeColor=#6c8ebf;" vertex="1" parent="1">
          <mxGeometry x="967.5" y="920" width="115" height="40" as="geometry" />
        </mxCell>
        <mxCell id="CA8DIJyEQ-BG8HpjzGWb-81" style="edgeStyle=orthogonalEdgeStyle;rounded=0;orthogonalLoop=1;jettySize=auto;html=1;" edge="1" parent="1" source="CA8DIJyEQ-BG8HpjzGWb-80" target="CA8DIJyEQ-BG8HpjzGWb-82">
          <mxGeometry relative="1" as="geometry">
            <mxPoint x="710" y="940" as="targetPoint" />
          </mxGeometry>
        </mxCell>
        <mxCell id="CA8DIJyEQ-BG8HpjzGWb-80" value="Possesso" style="rhombus;whiteSpace=wrap;html=1;fillColor=#dae8fc;strokeColor=#6c8ebf;" vertex="1" parent="1">
          <mxGeometry x="787" y="910" width="93" height="60" as="geometry" />
        </mxCell>
        <mxCell id="CA8DIJyEQ-BG8HpjzGWb-82" value="Stato Server" style="rounded=0;whiteSpace=wrap;html=1;fillColor=#dae8fc;strokeColor=#6c8ebf;" vertex="1" parent="1">
          <mxGeometry x="560" y="917.5" width="110" height="45" as="geometry" />
        </mxCell>
        <mxCell id="CA8DIJyEQ-BG8HpjzGWb-85" style="edgeStyle=orthogonalEdgeStyle;rounded=0;orthogonalLoop=1;jettySize=auto;html=1;" edge="1" parent="1" source="CA8DIJyEQ-BG8HpjzGWb-84" target="CA8DIJyEQ-BG8HpjzGWb-14">
          <mxGeometry relative="1" as="geometry">
            <mxPoint x="250" y="200" as="targetPoint" />
            <Array as="points">
              <mxPoint x="50" y="340" />
              <mxPoint x="120" y="340" />
              <mxPoint x="120" y="200" />
              <mxPoint x="440" y="200" />
            </Array>
          </mxGeometry>
        </mxCell>
        <mxCell id="CA8DIJyEQ-BG8HpjzGWb-84" value="Cache" style="rhombus;whiteSpace=wrap;html=1;fillColor=#dae8fc;strokeColor=#6c8ebf;" vertex="1" parent="1">
          <mxGeometry x="10" y="460" width="80" height="50" as="geometry" />
        </mxCell>
      </root>
    </mxGraphModel>
  </diagram>
</mxfile>
